<?xml version="1.0" encoding="utf-8"?>
<svg xmlns="http://www.w3.org/2000/svg" style="margin: auto; background: rgb(255, 251, 243); display: block; shape-rendering: auto; animation-play-state: running; animation-delay: 0s;" width="272" height="250" preserveAspectRatio="xMidYMid">
<style type="text/css" style="animation-play-state: running; animation-delay: 0s;">
  text {
    text-anchor: middle; font-size: 27px; opacity: 0;
  }
</style>
<g style="transform-origin: 136px 125px; transform: scale(1); animation-play-state: running; animation-delay: 0s;">
<g transform="translate(136,125)" style="animation-play-state: running; animation-delay: 0s;">
  <g transform="translate(0,0)" style="animation-play-state: running; animation-delay: 0s;"><g class="path" style="transform: scale(1); transform-origin: -76.575px 1.74008px; animation: 1s linear -0.609231s infinite normal forwards running beat-28312e92-309a-4b05-bbbf-79de16685e3c;"><path d="M17.43-8.73L17.43-8.73L17.43-8.73Q17.43-7.19 17.05-5.51L17.05-5.51L17.05-5.51Q16.68-3.84 16.00-2.23L16.00-2.23L16.00-2.23Q15.33-0.62 14.40 0.80L14.40 0.80L14.40 0.80Q13.46 2.21 12.34 3.24L12.34 3.24L10.67 2.33L10.67 2.33Q11.02 1.67 11.34 0.86L11.34 0.86L11.34 0.86Q11.65 0.04 11.91-0.88L11.91-0.88L11.91-0.88Q12.17-1.79 12.37-2.77L12.37-2.77L12.37-2.77Q12.58-3.74 12.72-4.70L12.72-4.70L12.72-4.70Q12.85-5.66 12.93-6.56L12.93-6.56L12.93-6.56Q13.00-7.46 13.00-8.24L13.00-8.24L13.00-8.24Q13.00-8.75 12.96-9.34L12.96-9.34L12.96-9.34Q12.92-9.93 12.79-10.51L12.79-10.51L12.79-10.51Q12.67-11.10 12.46-11.64L12.46-11.64L12.46-11.64Q12.25-12.18 11.90-12.59L11.90-12.59L11.90-12.59Q11.55-13.00 11.05-13.25L11.05-13.25L11.05-13.25Q10.56-13.50 9.89-13.50L9.89-13.50L9.89-13.50Q9.23-13.50 8.71-13.20L8.71-13.20L8.71-13.20Q8.20-12.91 7.80-12.43L7.80-12.43L7.80-12.43Q7.41-11.94 7.13-11.32L7.13-11.32L7.13-11.32Q6.84-10.71 6.66-10.05L6.66-10.05L6.66-10.05Q6.49-9.40 6.41-8.77L6.41-8.77L6.41-8.77Q6.33-8.13 6.33-7.63L6.33-7.63L6.33 0L1.86 0L1.86-15.23L3.57-15.23L5.62-11.68L5.62-11.68Q5.99-12.56 6.54-13.29L6.54-13.29L6.54-13.29Q7.09-14.01 7.79-14.53L7.79-14.53L7.79-14.53Q8.49-15.04 9.34-15.32L9.34-15.32L9.34-15.32Q10.19-15.60 11.18-15.60L11.18-15.60L11.18-15.60Q12.76-15.60 13.94-15.08L13.94-15.08L13.94-15.08Q15.11-14.57 15.89-13.65L15.89-13.65L15.89-13.65Q16.66-12.74 17.05-11.48L17.05-11.48L17.05-11.48Q17.43-10.22 17.43-8.73" fill="#51cacc" stroke="none" stroke-width="none" transform="translate(-86.22000122070312,7.92007951002855)" style="fill: rgb(81, 202, 204); animation-play-state: running; animation-delay: 0s;"></path></g><g class="path" style="transform: scale(1); transform-origin: -63.605px -10.9799px; animation: 1s linear -0.558462s infinite normal forwards running beat-28312e92-309a-4b05-bbbf-79de16685e3c;"><path d="M25.05-18.91L25.05-18.91L25.05-18.91Q25.05-18.40 24.86-17.96L24.86-17.96L24.86-17.96Q24.67-17.51 24.34-17.18L24.34-17.18L24.34-17.18Q24.01-16.85 23.56-16.66L23.56-16.66L23.56-16.66Q23.11-16.47 22.61-16.47L22.61-16.47L22.61-16.47Q22.11-16.47 21.67-16.66L21.67-16.66L21.67-16.66Q21.23-16.85 20.90-17.18L20.90-17.18L20.90-17.18Q20.57-17.51 20.38-17.96L20.38-17.96L20.38-17.96Q20.18-18.40 20.18-18.91L20.18-18.91L20.18-18.91Q20.18-19.41 20.38-19.85L20.38-19.85L20.38-19.85Q20.57-20.29 20.90-20.62L20.90-20.62L20.90-20.62Q21.23-20.95 21.67-21.14L21.67-21.14L21.67-21.14Q22.11-21.33 22.61-21.33L22.61-21.33L22.61-21.33Q23.11-21.33 23.56-21.14L23.56-21.14L23.56-21.14Q24.01-20.95 24.34-20.62L24.34-20.62L24.34-20.62Q24.67-20.29 24.86-19.85L24.86-19.85L24.86-19.85Q25.05-19.41 25.05-18.91" fill="#51cacc" stroke="none" stroke-width="none" transform="translate(-86.22000122070312,7.92007951002855)" style="fill: rgb(157, 248, 113); animation-play-state: running; animation-delay: 0s;"></path></g><g class="path" style="transform: scale(1); transform-origin: -63.605px 0.315079px; animation: 1s linear -0.507692s infinite normal forwards running beat-28312e92-309a-4b05-bbbf-79de16685e3c;"><path d="M24.85-15.21L24.85 0L20.38 0L20.38-15.21L24.85-15.21" fill="#51cacc" stroke="none" stroke-width="none" transform="translate(-86.22000122070312,7.92007951002855)" style="fill: rgb(224, 255, 119); animation-play-state: running; animation-delay: 0s;"></path></g><g class="path" style="transform: scale(1); transform-origin: -49.855px -0.874921px; animation: 1s linear -0.456923s infinite normal forwards running beat-28312e92-309a-4b05-bbbf-79de16685e3c;"><path d="M44.15-8.73L44.15-8.73L44.15-8.73Q44.15-7.19 43.78-5.51L43.78-5.51L43.78-5.51Q43.40-3.84 42.73-2.23L42.73-2.23L42.73-2.23Q42.06-0.62 41.12 0.80L41.12 0.80L41.12 0.80Q40.18 2.21 39.06 3.24L39.06 3.24L37.39 2.33L37.39 2.33Q37.74 1.67 38.06 0.86L38.06 0.86L38.06 0.86Q38.38 0.04 38.63-0.88L38.63-0.88L38.63-0.88Q38.89-1.79 39.10-2.77L39.10-2.77L39.10-2.77Q39.30-3.74 39.44-4.70L39.44-4.70L39.44-4.70Q39.58-5.66 39.65-6.56L39.65-6.56L39.65-6.56Q39.72-7.46 39.72-8.24L39.72-8.24L39.72-8.24Q39.72-8.75 39.68-9.34L39.68-9.34L39.68-9.34Q39.64-9.93 39.52-10.51L39.52-10.51L39.52-10.51Q39.39-11.10 39.18-11.64L39.18-11.64L39.18-11.64Q38.97-12.18 38.62-12.59L38.62-12.59L38.62-12.59Q38.27-13.00 37.78-13.25L37.78-13.25L37.78-13.25Q37.28-13.50 36.61-13.50L36.61-13.50L36.61-13.50Q35.95-13.50 35.44-13.20L35.44-13.20L35.44-13.20Q34.92-12.91 34.53-12.43L34.53-12.43L34.53-12.43Q34.13-11.94 33.85-11.32L33.85-11.32L33.85-11.32Q33.57-10.71 33.39-10.05L33.39-10.05L33.39-10.05Q33.21-9.40 33.13-8.77L33.13-8.77L33.13-8.77Q33.05-8.13 33.05-7.63L33.05-7.63L33.05 0L28.58 0L28.58-20.83L33.04-20.83L33.04-12.99L33.04-12.99Q33.90-14.24 35.14-14.92L35.14-14.92L35.14-14.92Q36.39-15.60 37.90-15.60L37.90-15.60L37.90-15.60Q39.48-15.60 40.66-15.08L40.66-15.08L40.66-15.08Q41.83-14.57 42.61-13.65L42.61-13.65L42.61-13.65Q43.39-12.74 43.77-11.48L43.77-11.48L43.77-11.48Q44.15-10.22 44.15-8.73" fill="#51cacc" stroke="none" stroke-width="none" transform="translate(-86.22000122070312,7.92007951002855)" style="fill: rgb(222, 157, 214); animation-play-state: running; animation-delay: 0s;"></path></g><g class="path" style="transform: scale(1); transform-origin: -31.895px 0.270079px; animation: 1s linear -0.406154s infinite normal forwards running beat-28312e92-309a-4b05-bbbf-79de16685e3c;"><path d="M62.42-15.23L62.42 0L57.97 0L57.97-1.82L57.97-1.82Q57.18-0.74 56.06-0.22L56.06-0.22L56.06-0.22Q54.95 0.30 53.62 0.30L53.62 0.30L53.62 0.30Q51.88 0.30 50.51-0.32L50.51-0.32L50.51-0.32Q49.14-0.94 48.19-2.01L48.19-2.01L48.19-2.01Q47.24-3.08 46.74-4.54L46.74-4.54L46.74-4.54Q46.23-5.99 46.23-7.65L46.23-7.65L46.23-7.65Q46.23-9.31 46.74-10.76L46.74-10.76L46.74-10.76Q47.24-12.21 48.19-13.28L48.19-13.28L48.19-13.28Q49.14-14.36 50.51-14.98L50.51-14.98L50.51-14.98Q51.88-15.60 53.62-15.60L53.62-15.60L53.62-15.60Q54.50-15.60 55.30-15.33L55.30-15.33L55.30-15.33Q56.10-15.07 56.76-14.59L56.76-14.59L56.76-14.59Q57.43-14.11 57.94-13.43L57.94-13.43L57.94-13.43Q58.44-12.75 58.73-11.92L58.73-11.92L60.71-15.23L62.42-15.23zM57.94-7.65L57.94-7.65L57.94-7.65Q57.94-8.24 57.88-8.90L57.88-8.90L57.88-8.90Q57.82-9.56 57.68-10.20L57.68-10.20L57.68-10.20Q57.53-10.85 57.28-11.44L57.28-11.44L57.28-11.44Q57.02-12.02 56.62-12.48L56.62-12.48L56.62-12.48Q56.21-12.93 55.65-13.20L55.65-13.20L55.65-13.20Q55.08-13.46 54.33-13.46L54.33-13.46L54.33-13.46Q53.58-13.46 53.02-13.19L53.02-13.19L53.02-13.19Q52.47-12.92 52.08-12.47L52.08-12.47L52.08-12.47Q51.68-12.01 51.42-11.42L51.42-11.42L51.42-11.42Q51.17-10.82 51.02-10.18L51.02-10.18L51.02-10.18Q50.88-9.53 50.82-8.88L50.82-8.88L50.82-8.88Q50.76-8.23 50.76-7.65L50.76-7.65L50.76-7.65Q50.76-7.07 50.82-6.41L50.82-6.41L50.82-6.41Q50.88-5.75 51.02-5.10L51.02-5.10L51.02-5.10Q51.17-4.46 51.42-3.86L51.42-3.86L51.42-3.86Q51.68-3.27 52.08-2.81L52.08-2.81L52.08-2.81Q52.47-2.36 53.02-2.09L53.02-2.09L53.02-2.09Q53.58-1.82 54.33-1.82L54.33-1.82L54.33-1.82Q55.02-1.82 55.55-2.10L55.55-2.10L55.55-2.10Q56.08-2.39 56.49-2.86L56.49-2.86L56.49-2.86Q56.89-3.34 57.16-3.94L57.16-3.94L57.16-3.94Q57.44-4.55 57.61-5.19L57.61-5.19L57.61-5.19Q57.78-5.84 57.86-6.48L57.86-6.48L57.86-6.48Q57.94-7.12 57.94-7.65" fill="#51cacc" stroke="none" stroke-width="none" transform="translate(-86.22000122070312,7.92007951002855)" style="fill: rgb(255, 112, 142); animation-play-state: running; animation-delay: 0s;"></path></g><g class="path" style="transform: scale(1); transform-origin: -17.85px -3.19992px; animation: 1s linear -0.355385s infinite normal forwards running beat-28312e92-309a-4b05-bbbf-79de16685e3c;"><path d="M70.60-17.61L70.60 0L66.14 0L66.14-22.24L67.86-22.24L70.60-17.61" fill="#51cacc" stroke="none" stroke-width="none" transform="translate(-86.22000122070312,7.92007951002855)" style="fill: rgb(81, 202, 204); animation-play-state: running; animation-delay: 0s;"></path></g><g class="path" style="transform: scale(1); transform-origin: 1.8px 0.305079px; animation: 1s linear -0.304615s infinite normal forwards running beat-28312e92-309a-4b05-bbbf-79de16685e3c;"><path d="M95.79-15.23L89.79 0L85.79 0L80.25-15.23L84.70-15.23L88.77-3.10L92.71-15.23L95.79-15.23" fill="#51cacc" stroke="none" stroke-width="none" transform="translate(-86.22000122070312,7.92007951002855)" style="fill: rgb(157, 248, 113); animation-play-state: running; animation-delay: 0s;"></path></g><g class="path" style="transform: scale(1); transform-origin: 18.445px 0.270079px; animation: 1s linear -0.253846s infinite normal forwards running beat-28312e92-309a-4b05-bbbf-79de16685e3c;"><path d="M112.76-15.23L112.76 0L108.30 0L108.30-1.82L108.30-1.82Q107.51-0.74 106.40-0.22L106.40-0.22L106.40-0.22Q105.28 0.30 103.95 0.30L103.95 0.30L103.95 0.30Q102.21 0.30 100.84-0.32L100.84-0.32L100.84-0.32Q99.47-0.94 98.52-2.01L98.52-2.01L98.52-2.01Q97.57-3.08 97.07-4.54L97.07-4.54L97.07-4.54Q96.57-5.99 96.57-7.65L96.57-7.65L96.57-7.65Q96.57-9.31 97.07-10.76L97.07-10.76L97.07-10.76Q97.57-12.21 98.52-13.28L98.52-13.28L98.52-13.28Q99.47-14.36 100.84-14.98L100.84-14.98L100.84-14.98Q102.21-15.60 103.95-15.60L103.95-15.60L103.95-15.60Q104.84-15.60 105.63-15.33L105.63-15.33L105.63-15.33Q106.43-15.07 107.10-14.59L107.10-14.59L107.10-14.59Q107.76-14.11 108.27-13.43L108.27-13.43L108.27-13.43Q108.78-12.75 109.07-11.92L109.07-11.92L111.05-15.23L112.76-15.23zM108.28-7.65L108.28-7.65L108.28-7.65Q108.28-8.24 108.22-8.90L108.22-8.90L108.22-8.90Q108.16-9.56 108.01-10.20L108.01-10.20L108.01-10.20Q107.87-10.85 107.61-11.44L107.61-11.44L107.61-11.44Q107.35-12.02 106.95-12.48L106.95-12.48L106.95-12.48Q106.55-12.93 105.98-13.20L105.98-13.20L105.98-13.20Q105.42-13.46 104.66-13.46L104.66-13.46L104.66-13.46Q103.91-13.46 103.36-13.19L103.36-13.19L103.36-13.19Q102.81-12.92 102.41-12.47L102.41-12.47L102.41-12.47Q102.01-12.01 101.76-11.42L101.76-11.42L101.76-11.42Q101.50-10.82 101.36-10.18L101.36-10.18L101.36-10.18Q101.21-9.53 101.15-8.88L101.15-8.88L101.15-8.88Q101.09-8.23 101.09-7.65L101.09-7.65L101.09-7.65Q101.09-7.07 101.15-6.41L101.15-6.41L101.15-6.41Q101.21-5.75 101.36-5.10L101.36-5.10L101.36-5.10Q101.50-4.46 101.76-3.86L101.76-3.86L101.76-3.86Q102.01-3.27 102.41-2.81L102.41-2.81L102.41-2.81Q102.81-2.36 103.36-2.09L103.36-2.09L103.36-2.09Q103.91-1.82 104.66-1.82L104.66-1.82L104.66-1.82Q105.35-1.82 105.88-2.10L105.88-2.10L105.88-2.10Q106.42-2.39 106.82-2.86L106.82-2.86L106.82-2.86Q107.22-3.34 107.50-3.94L107.50-3.94L107.50-3.94Q107.78-4.55 107.95-5.19L107.95-5.19L107.95-5.19Q108.12-5.84 108.20-6.48L108.20-6.48L108.20-6.48Q108.28-7.12 108.28-7.65" fill="#51cacc" stroke="none" stroke-width="none" transform="translate(-86.22000122070312,7.92007951002855)" style="fill: rgb(224, 255, 119); animation-play-state: running; animation-delay: 0s;"></path></g><g class="path" style="transform: scale(1); transform-origin: 32.505px -10.9799px; animation: 1s linear -0.203077s infinite normal forwards running beat-28312e92-309a-4b05-bbbf-79de16685e3c;"><path d="M121.16-18.91L121.16-18.91L121.16-18.91Q121.16-18.40 120.97-17.96L120.97-17.96L120.97-17.96Q120.77-17.51 120.45-17.18L120.45-17.18L120.45-17.18Q120.12-16.85 119.67-16.66L119.67-16.66L119.67-16.66Q119.22-16.47 118.72-16.47L118.72-16.47L118.72-16.47Q118.22-16.47 117.78-16.66L117.78-16.66L117.78-16.66Q117.33-16.85 117.00-17.18L117.00-17.18L117.00-17.18Q116.67-17.51 116.48-17.96L116.48-17.96L116.48-17.96Q116.29-18.40 116.29-18.91L116.29-18.91L116.29-18.91Q116.29-19.41 116.48-19.85L116.48-19.85L116.48-19.85Q116.67-20.29 117.00-20.62L117.00-20.62L117.00-20.62Q117.33-20.95 117.78-21.14L117.78-21.14L117.78-21.14Q118.22-21.33 118.72-21.33L118.72-21.33L118.72-21.33Q119.22-21.33 119.67-21.14L119.67-21.14L119.67-21.14Q120.12-20.95 120.45-20.62L120.45-20.62L120.45-20.62Q120.77-20.29 120.97-19.85L120.97-19.85L120.97-19.85Q121.16-19.41 121.16-18.91" fill="#51cacc" stroke="none" stroke-width="none" transform="translate(-86.22000122070312,7.92007951002855)" style="fill: rgb(222, 157, 214); animation-play-state: running; animation-delay: 0s;"></path></g><g class="path" style="transform: scale(1); transform-origin: 32.505px 0.315079px; animation: 1s linear -0.152308s infinite normal forwards running beat-28312e92-309a-4b05-bbbf-79de16685e3c;"><path d="M120.96-15.21L120.96 0L116.49 0L116.49-15.21L120.96-15.21" fill="#51cacc" stroke="none" stroke-width="none" transform="translate(-86.22000122070312,7.92007951002855)" style="fill: rgb(255, 112, 142); animation-play-state: running; animation-delay: 0s;"></path></g><g class="path" style="transform: scale(1); transform-origin: 45.725px -2.31492px; animation: 1s linear -0.101538s infinite normal forwards running beat-28312e92-309a-4b05-bbbf-79de16685e3c;"><path d="M140.04-20.83L140.04 0L138.32 0L136.34-3.31L136.34-3.31Q136.05-2.48 135.55-1.81L135.55-1.81L135.55-1.81Q135.04-1.13 134.37-0.65L134.37-0.65L134.37-0.65Q133.71-0.17 132.91 0.09L132.91 0.09L132.91 0.09Q132.11 0.36 131.23 0.36L131.23 0.36L131.23 0.36Q129.49 0.36 128.12-0.26L128.12-0.26L128.12-0.26Q126.75-0.88 125.80-1.96L125.80-1.96L125.80-1.96Q124.85-3.03 124.35-4.48L124.35-4.48L124.35-4.48Q123.85-5.93 123.85-7.59L123.85-7.59L123.85-7.59Q123.85-9.25 124.35-10.71L124.35-10.71L124.35-10.71Q124.85-12.16 125.80-13.22L125.80-13.22L125.80-13.22Q126.75-14.29 128.12-14.91L128.12-14.91L128.12-14.91Q129.49-15.53 131.23-15.53L131.23-15.53L131.23-15.53Q132.56-15.53 133.68-15.02L133.68-15.02L133.68-15.02Q134.79-14.50 135.58-13.41L135.58-13.41L135.58-20.83L140.04-20.83zM135.55-7.59L135.55-7.59L135.55-7.59Q135.55-8.12 135.47-8.75L135.47-8.75L135.47-8.75Q135.40-9.39 135.22-10.03L135.22-10.03L135.22-10.03Q135.05-10.68 134.78-11.29L134.78-11.29L134.78-11.29Q134.50-11.89 134.10-12.37L134.10-12.37L134.10-12.37Q133.69-12.84 133.16-13.12L133.16-13.12L133.16-13.12Q132.63-13.41 131.94-13.41L131.94-13.41L131.94-13.41Q131.19-13.41 130.64-13.14L130.64-13.14L130.64-13.14Q130.08-12.87 129.69-12.41L129.69-12.41L129.69-12.41Q129.29-11.96 129.03-11.36L129.03-11.36L129.03-11.36Q128.78-10.77 128.63-10.13L128.63-10.13L128.63-10.13Q128.49-9.48 128.43-8.83L128.43-8.83L128.43-8.83Q128.37-8.17 128.37-7.59L128.37-7.59L128.37-7.59Q128.37-7.01 128.43-6.36L128.43-6.36L128.43-6.36Q128.49-5.71 128.63-5.06L128.63-5.06L128.63-5.06Q128.78-4.42 129.03-3.82L129.03-3.82L129.03-3.82Q129.29-3.22 129.69-2.76L129.69-2.76L129.69-2.76Q130.08-2.31 130.64-2.04L130.64-2.04L130.64-2.04Q131.19-1.77 131.94-1.77L131.94-1.77L131.94-1.77Q132.69-1.77 133.26-2.03L133.26-2.03L133.26-2.03Q133.83-2.29 134.23-2.75L134.23-2.75L134.23-2.75Q134.63-3.20 134.89-3.79L134.89-3.79L134.89-3.79Q135.15-4.38 135.29-5.03L135.29-5.03L135.29-5.03Q135.44-5.68 135.49-6.34L135.49-6.34L135.49-6.34Q135.55-7.00 135.55-7.59" fill="#51cacc" stroke="none" stroke-width="none" transform="translate(-86.22000122070312,7.92007951002855)" style="fill: rgb(81, 202, 204); animation-play-state: running; animation-delay: 0s;"></path></g><g class="path" style="transform: scale(1); transform-origin: 63.395px 3.82008px; animation: 1s linear -0.0507692s infinite normal forwards running beat-28312e92-309a-4b05-bbbf-79de16685e3c;"><path d="M154.30-15.23L157.39-15.23L151.85-1.83L151.85-1.83Q150.90 0.46 149.73 2.71L149.73 2.71L149.73 2.71Q148.57 4.96 147.21 7.03L147.21 7.03L145.47 5.97L145.47 5.97Q145.80 5.38 146.25 4.60L146.25 4.60L146.25 4.60Q146.69 3.82 147.13 2.99L147.13 2.99L147.13 2.99Q147.56 2.16 147.93 1.35L147.93 1.35L147.93 1.35Q148.30 0.54 148.50-0.13L148.50-0.13L141.84-15.23L146.30-15.23L150.82-4.93L154.30-15.23" fill="#51cacc" stroke="none" stroke-width="none" transform="translate(-86.22000122070312,7.92007951002855)" style="fill: rgb(157, 248, 113); animation-play-state: running; animation-delay: 0s;"></path></g><g class="path" style="transform: scale(1); transform-origin: 79.985px 0.270079px; animation: 1s linear 0s infinite normal forwards running beat-28312e92-309a-4b05-bbbf-79de16685e3c;"><path d="M174.30-15.23L174.30 0L169.84 0L169.84-1.82L169.84-1.82Q169.05-0.74 167.94-0.22L167.94-0.22L167.94-0.22Q166.83 0.30 165.49 0.30L165.49 0.30L165.49 0.30Q163.75 0.30 162.38-0.32L162.38-0.32L162.38-0.32Q161.01-0.94 160.06-2.01L160.06-2.01L160.06-2.01Q159.11-3.08 158.61-4.54L158.61-4.54L158.61-4.54Q158.11-5.99 158.11-7.65L158.11-7.65L158.11-7.65Q158.11-9.31 158.61-10.76L158.61-10.76L158.61-10.76Q159.11-12.21 160.06-13.28L160.06-13.28L160.06-13.28Q161.01-14.36 162.38-14.98L162.38-14.98L162.38-14.98Q163.75-15.60 165.49-15.60L165.49-15.60L165.49-15.60Q166.38-15.60 167.17-15.33L167.17-15.33L167.17-15.33Q167.97-15.07 168.64-14.59L168.64-14.59L168.64-14.59Q169.30-14.11 169.81-13.43L169.81-13.43L169.81-13.43Q170.32-12.75 170.61-11.92L170.61-11.92L172.59-15.23L174.30-15.23zM169.82-7.65L169.82-7.65L169.82-7.65Q169.82-8.24 169.76-8.90L169.76-8.90L169.76-8.90Q169.70-9.56 169.55-10.20L169.55-10.20L169.55-10.20Q169.41-10.85 169.15-11.44L169.15-11.44L169.15-11.44Q168.90-12.02 168.49-12.48L168.49-12.48L168.49-12.48Q168.09-12.93 167.52-13.20L167.52-13.20L167.52-13.20Q166.96-13.46 166.21-13.46L166.21-13.46L166.21-13.46Q165.45-13.46 164.90-13.19L164.90-13.19L164.90-13.19Q164.35-12.92 163.95-12.47L163.95-12.47L163.95-12.47Q163.56-12.01 163.30-11.42L163.30-11.42L163.30-11.42Q163.04-10.82 162.90-10.18L162.90-10.18L162.90-10.18Q162.75-9.53 162.69-8.88L162.69-8.88L162.69-8.88Q162.63-8.23 162.63-7.65L162.63-7.65L162.63-7.65Q162.63-7.07 162.69-6.41L162.69-6.41L162.69-6.41Q162.75-5.75 162.90-5.10L162.90-5.10L162.90-5.10Q163.04-4.46 163.30-3.86L163.30-3.86L163.30-3.86Q163.56-3.27 163.95-2.81L163.95-2.81L163.95-2.81Q164.35-2.36 164.90-2.09L164.90-2.09L164.90-2.09Q165.45-1.82 166.21-1.82L166.21-1.82L166.21-1.82Q166.89-1.82 167.43-2.10L167.43-2.10L167.43-2.10Q167.96-2.39 168.36-2.86L168.36-2.86L168.36-2.86Q168.76-3.34 169.04-3.94L169.04-3.94L169.04-3.94Q169.32-4.55 169.49-5.19L169.49-5.19L169.49-5.19Q169.66-5.84 169.74-6.48L169.74-6.48L169.74-6.48Q169.82-7.12 169.82-7.65" fill="#51cacc" stroke="none" stroke-width="none" transform="translate(-86.22000122070312,7.92007951002855)" style="fill: rgb(224, 255, 119); animation-play-state: running; animation-delay: 0s;"></path></g></g>
</g>
</g>
<style id="beat-28312e92-309a-4b05-bbbf-79de16685e3c" data-anikit="">@keyframes beat-28312e92-309a-4b05-bbbf-79de16685e3c
{
  0% {
    animation-timing-function: cubic-bezier(0.1028,0.2484,0.1372,0.849);
    transform: scale(1);
  }
  34% {
    animation-timing-function: cubic-bezier(0.7116,0.2095,0.8159,0.6876);
    transform: scale(1.2);
  }
  68% {
    animation-timing-function: cubic-bezier(0.1475,0.2888,0.294,0.883);
    transform: scale(1.0268);
  }
  84% {
    animation-timing-function: cubic-bezier(0.8176,0.2193,0.867,0.6889);
    transform: scale(1.0932);
  }
  100% {
    transform: scale(1);
  }
}</style></svg>